<svg xmlns="http://www.w3.org/2000/svg" viewBox="0 0 64 64" width="100%" height="100%">
    <circle cx="26" cy="26" r="10" fill="#FFC107" />
    <path d="M26 12V8M26 44v-4M12 26H8m36 0h-4m-19.9-9.9l-2.8-2.8m25.4 25.4l-2.8-2.8M13.3 38.7l2.8-2.8m25.4-25.4l2.8-2.8" stroke="#FFC107" stroke-width="3" stroke-linecap="round" />
    
    <path d="M46 48H22c-5.5 0-10-4.5-10-10 0-5.3 4.1-9.6 9.4-10 1.5-6 7.1-10 13.6-10 7.7 0 14 6.3 14 14 0 .3 0 .5-.1.8 3.8 1.1 6.1 4.8 6.1 8.2 0 3.9-3.1 7-7 7z" fill="#FFFFFF" stroke="#9CA3AF" stroke-width="2" stroke-linejoin="round" />
</svg>
